<?xml version="1.0" encoding="utf-8"?>
<!-- Generator: Adobe Illustrator 25.0.0, SVG Export Plug-In . SVG Version: 6.00 Build 0)  -->
<svg version="1.1"
	 id="svg2" xmlns:cc="http://creativecommons.org/ns#" xmlns:dc="http://purl.org/dc/elements/1.1/" xmlns:rdf="http://www.w3.org/1999/02/22-rdf-syntax-ns#"
	 xmlns="http://www.w3.org/2000/svg" xmlns:xlink="http://www.w3.org/1999/xlink" x="0px" y="0px" viewBox="0 0 1000 557.8"
	 style="enable-background:new 0 0 1000 557.8;" xml:space="preserve">
<style type="text/css">
	.st0{fill:#4885ED;}
	.st1{fill:#DB3236;}
	.st2{fill:#F4C20D;}
	.st3{fill:#3CBA54;}
	.st4{fill:#F8D800;}
	.st5{fill:#CCB403;}
</style>
<g>
	<path id="path2998" class="st0" d="M246.1,143.5H129.5v34.6h82.7c-4.1,48.5-44.4,69.2-82.5,69.2c-48.7,0-91.3-38.3-91.3-92.1
		c0-52.4,40.5-92.7,91.4-92.7c39.2,0,62.3,25,62.3,25l24.2-25.1c0,0-31.1-34.6-87.8-34.6C56.4,27.8,0.5,88.8,0.5,154.6
		C0.5,219.1,53,282,130.4,282c68,0,117.8-46.6,117.8-115.5C248.2,151.9,246.1,143.5,246.1,143.5L246.1,143.5z"/>
	<path id="path3000" class="st1" d="M341.6,118.5c-47.8,0-82.1,37.4-82.1,81c0,44.3,33.2,82.3,82.7,82.3c44.7,0,81.4-34.2,81.4-81.4
		C423.6,146.3,380.9,118.5,341.6,118.5L341.6,118.5z M342.1,150.6c23.5,0,45.8,19,45.8,49.7c0,30-22.2,49.6-45.9,49.6
		c-26.1,0-46.6-20.9-46.6-49.8C295.3,171.7,315.6,150.6,342.1,150.6L342.1,150.6z"/>
	<path id="path3005" class="st2" d="M520.2,118.5c-47.8,0-82.1,37.4-82.1,81c0,44.3,33.2,82.3,82.7,82.3c44.7,0,81.4-34.2,81.4-81.4
		C602.1,146.3,559.5,118.5,520.2,118.5L520.2,118.5z M520.7,150.6c23.5,0,45.8,19,45.8,49.7c0,30-22.2,49.6-45.9,49.6
		c-26.1,0-46.6-20.9-46.6-49.8C473.9,171.7,494.2,150.6,520.7,150.6L520.7,150.6z"/>
	<path id="path3007" class="st0" d="M695.3,118.6c-43.9,0-78.4,38.5-78.4,81.6c0,49.2,40,81.8,77.7,81.8c23.3,0,35.7-9.2,44.8-19.8
		v16.1c0,28.2-17.1,45.1-42.9,45.1c-24.9,0-37.5-18.6-41.8-29.1l-31.4,13.1c11.1,23.5,33.6,48.1,73.5,48.1
		c43.7,0,76.9-27.5,76.9-85.2V123.5h-34.2v13.8C728.9,126,714.5,118.6,695.3,118.6L695.3,118.6z M698.5,150.6
		c21.5,0,43.6,18.4,43.6,49.8c0,31.9-22.1,49.5-44.1,49.5c-23.4,0-45.2-19-45.2-49.2C652.9,169.3,675.5,150.6,698.5,150.6
		L698.5,150.6z"/>
	<path id="path3011" class="st1" d="M925.9,118.4c-41.4,0-76.2,32.9-76.2,81.6c0,51.4,38.8,82,80.2,82c34.6,0,55.8-18.9,68.4-35.8
		l-28.2-18.8c-7.3,11.4-19.6,22.5-40,22.5c-23,0-33.5-12.6-40.1-24.8l109.5-45.4l-5.7-13.3C983.2,140.2,958.6,118.4,925.9,118.4
		L925.9,118.4z M927.3,149.8c14.9,0,25.7,7.9,30.2,17.4l-73.1,30.6C881.2,174.1,903.7,149.8,927.3,149.8L927.3,149.8z"/>
	<path id="path3015" class="st3" d="M797.5,277h36V36.3h-36V277z"/>
</g>
<g>
	<polygon class="st4" points="215.1,407.7 230.3,454.4 279.4,454.4 239.7,483.3 254.8,530 215.1,501.1 175.4,530 190.5,483.3 
		150.8,454.4 199.9,454.4 	"/>
	<polygon class="st4" points="357.7,407.7 372.9,454.4 422,454.4 382.2,483.3 397.4,530 357.7,501.1 317.9,530 333.1,483.3 
		293.4,454.4 342.5,454.4 	"/>
	<polygon class="st4" points="500.2,407.7 515.4,454.4 564.5,454.4 524.8,483.3 540,530 500.2,501.1 460.5,530 475.7,483.3 
		436,454.4 485.1,454.4 	"/>
	<polygon class="st4" points="642.8,407.7 658,454.4 707.1,454.4 667.4,483.3 682.6,530 642.8,501.1 603.1,530 618.3,483.3 
		578.5,454.4 627.6,454.4 	"/>
	<polygon class="st5" points="785.4,407.7 800.6,454.4 849.7,454.4 810,483.3 825.1,530 785.4,501.1 745.7,530 760.8,483.3 
		721.1,454.4 770.2,454.4 	"/>
	<g>
		<polygon class="st4" points="810,483.3 817.3,478 817.3,454.4 800.6,454.4 785.4,407.7 770.2,454.4 721.1,454.4 760.8,483.3 
			745.7,530 785.4,501.1 817.3,524.2 817.3,505.7 		"/>
	</g>
</g>
</svg>
